<svg width="736" height="663" viewBox="0 0 736 663" fill="none" xmlns="http://www.w3.org/2000/svg">
<g clip-path="url(#clip0_6_12)">
<path d="M216.061 220.711C216.227 223.93 221.56 300.063 153.405 315.773C74.5863 334.002 39.8593 367.874 45.3416 410.502C50.824 453.129 96.7157 595.489 354.186 607.297C607.323 618.971 675.794 484.617 706.638 421.475C735.933 361.62 760.979 233.936 689.975 190.625C618.971 147.313 582.428 224.347 502.059 145.979C389.279 35.9901 208.879 85.3057 216.061 220.711Z" fill="#52BBA5"/>
<path d="M687.692 541.087C687.692 541.087 678.743 537.885 663.196 548.408C644.866 560.817 623.77 585.299 646.166 597.04C668.562 608.781 690.175 583.898 695.29 577.961C705.289 566.287 708.621 545.49 687.692 541.087Z" fill="#52BBA5"/>
<path d="M21.6961 158.153C21.6961 158.153 -12.0145 196.845 4.59917 234.587C21.2128 272.328 77.9192 288.972 123.411 224.58C168.903 160.188 108.93 127.85 108.93 127.85C108.93 127.85 60.7557 103.434 21.6961 158.153Z" fill="#52BBA5"/>
<path d="M604.474 661.933H614.339V418.273H604.474V661.933Z" fill="#1F1E24"/>
<path d="M462.249 661.933H472.114L472.114 418.273H462.249L462.249 661.933Z" fill="#0D1723"/>
<path d="M256.404 661.933H266.269L266.269 418.273H256.404L256.404 661.933Z" fill="#1F1E24"/>
<path d="M114.196 661.933H124.061L124.061 418.273H114.196L114.196 661.933Z" fill="#0D1723"/>
<path d="M210.595 429.864L646.649 429.864V402.646L210.595 402.646V429.864Z" fill="#101011"/>
<path d="M83.7853 429.864H210.612V402.646H83.7853V429.864Z" fill="#1F1E24"/>
<path d="M186.883 164.824C186.883 164.824 255.837 159.004 309.978 190.291L247.605 246.461L175.002 225.898L186.883 164.824Z" fill="black"/>
<path d="M189.499 164.641C189.499 164.641 203.714 211.688 147.557 259.136L130.51 277.815C128.383 280.44 125.744 282.604 122.753 284.174C119.763 285.744 116.484 286.687 113.117 286.946C109.75 287.205 106.365 286.774 103.17 285.681C99.975 284.587 97.0362 282.852 94.5333 280.583C89.9167 276.411 87.0331 270.656 86.453 264.458C85.8729 258.26 87.6385 252.069 91.4005 247.111C114.146 217.225 145.391 163.04 189.499 164.641Z" fill="black"/>
<path d="M239.84 105.352L228.658 85.5892L221.51 92.6438L239.84 105.352Z" fill="black"/>
<path d="M240.973 103.718L218.943 98.2308L219.16 108.271L240.973 103.718Z" fill="black"/>
<path d="M307.628 98.5143C307.628 98.5143 322.175 108.371 300.746 127.367L300.362 96.1461L307.628 98.5143Z" fill="#FB6749"/>
<path d="M283.232 129.001C282.492 131.129 282.395 133.429 282.954 135.612C283.513 137.796 284.703 139.765 286.375 141.275C288.047 142.785 290.126 143.768 292.354 144.1C294.581 144.433 296.857 144.101 298.896 143.146C300.936 142.19 302.649 140.654 303.82 138.729C304.992 136.805 305.57 134.577 305.483 132.325C305.396 130.073 304.647 127.896 303.33 126.068C302.013 124.24 300.187 122.841 298.08 122.046C296.649 121.521 295.128 121.285 293.606 121.351C292.084 121.416 290.589 121.783 289.209 122.43C287.829 123.076 286.59 123.99 285.564 125.117C284.539 126.245 283.746 127.565 283.232 129.001Z" fill="#EC8A63"/>
<path d="M270.368 151.816L261.203 182.252C258.12 192.442 251.788 191.058 242.107 188.006C233.775 185.388 225.96 178.6 229.042 169.661L244.04 128.217L270.368 151.816Z" fill="#FFB890"/>
<path d="M261.269 182.252L240.373 144.678C240.606 135.589 271.484 148.847 271.484 148.847L261.269 182.252Z" fill="#EC8A63"/>
<path d="M259.003 160.305C274.4 165.025 290.947 156.336 295.346 143.46L304.395 116.459C309.91 100.316 302.045 82.8208 286.631 76.917C270.851 70.863 250.304 78.1344 244.139 94.4618L237.34 115.576C231.191 134.605 240.956 153.384 259.003 160.305Z" fill="#FFB890"/>
<path d="M245.039 121.846C245.039 121.846 253.721 89.6586 263.802 87.257C263.802 87.257 305.678 115.992 318.309 99.515C330.94 83.0376 316.393 60.3561 282.316 69.4954C256.62 76.4333 249.372 79.9189 249.372 79.9189L237.707 103.501V118.094L245.039 121.846Z" fill="#363636"/>
<path d="M309.978 90.5091C309.978 90.5091 223.843 28.0683 237.991 108.254L241.173 108.104L257.454 80.4526L309.978 90.5091Z" fill="#363636"/>
<path d="M236.524 96.0627C236.524 96.0627 289.298 121.596 303.179 120.062L297.946 135.639C297.946 135.639 258.253 132.587 237.957 108.254C236.812 104.297 236.328 100.178 236.524 96.0627Z" fill="black"/>
<path d="M280.616 128.601L280.816 135.105L276.717 135.022" stroke="black" stroke-width="0.81" stroke-linecap="round" stroke-linejoin="round"/>
<path d="M270.368 104.985C270.368 104.985 276.633 108.804 274.85 110.906C274.85 110.906 273.6 112.307 268.185 108.905C262.769 105.502 261.752 104.201 262.452 102.55C263.152 100.899 267.535 103.017 270.368 104.985Z" fill="black"/>
<path d="M294.963 112.423C294.963 112.423 289.098 112.874 289.314 115.475C289.314 115.475 289.514 117.143 294.614 116.726C299.713 116.309 301.179 115.342 301.279 113.874C301.379 112.407 297.68 111.99 294.963 112.423Z" fill="black"/>
<path d="M288.298 125.299C288.057 125.984 288.097 126.737 288.41 127.394C288.722 128.05 289.281 128.556 289.964 128.801C290.484 128.994 291.049 129.028 291.587 128.898C292.126 128.768 292.613 128.48 292.987 128.071C293.361 127.662 293.605 127.15 293.687 126.602C293.768 126.054 293.685 125.493 293.447 124.993C293.209 124.492 292.827 124.074 292.35 123.792C291.873 123.51 291.322 123.377 290.769 123.41C290.216 123.443 289.686 123.64 289.246 123.977C288.805 124.313 288.475 124.773 288.298 125.299Z" fill="white"/>
<path d="M265.919 117.66C265.764 118.168 265.761 118.71 265.912 119.219C266.063 119.728 266.36 120.181 266.767 120.522C267.174 120.863 267.672 121.076 268.199 121.136C268.726 121.195 269.259 121.097 269.731 120.856C270.203 120.614 270.593 120.238 270.853 119.775C271.113 119.312 271.231 118.783 271.193 118.254C271.154 117.724 270.96 117.218 270.636 116.798C270.311 116.378 269.87 116.063 269.368 115.892C268.677 115.676 267.928 115.74 267.283 116.071C266.638 116.401 266.148 116.972 265.919 117.66Z" fill="white"/>
<path d="M264.652 136.139C264.652 136.139 270.535 144.044 278.283 141.96" stroke="black" stroke-width="0.81" stroke-linecap="round" stroke-linejoin="round"/>
<path d="M243.111 118.674C244.982 112.485 241.644 105.997 235.654 104.183C229.665 102.368 223.292 105.914 221.42 112.103C219.549 118.292 222.887 124.78 228.877 126.594C234.866 128.408 241.239 124.862 243.111 118.674Z" fill="#FFB890"/>
<path d="M234.741 120.095C234.741 120.095 237.74 112.157 229.941 110.589" stroke="black" stroke-width="0.81" stroke-linecap="round" stroke-linejoin="round"/>
<path d="M498.461 74.6938C504.867 40.435 482.311 7.46533 448.081 1.05397C413.851 -5.35738 380.908 17.2174 374.502 51.4762C368.096 85.735 390.652 118.705 424.883 125.116C459.113 131.527 492.055 108.953 498.461 74.6938Z" fill="black"/>
<path d="M385.28 94.7119L373.815 113.708L405.46 106.903L385.28 94.7119Z" fill="black"/>
<path fill-rule="evenodd" clip-rule="evenodd" d="M463.183 53.9852C462.949 52.7011 462.699 51.3001 462.449 49.7992C460.55 38.3584 444.119 28.1183 431.055 30.3698C417.991 32.6213 405.726 47.4977 407.626 58.9218C407.876 60.4395 408.093 61.8404 408.293 63.1245C409.409 70.5461 410.159 75.4493 415.375 78.8848L418.824 81.1196C420.984 82.2777 422.956 83.7566 424.673 85.5058C425.109 86.2087 425.477 86.9514 425.773 87.7239C426.673 89.8253 427.789 92.427 430.355 92.0101L451.651 88.4578C454.218 88.0242 454.434 85.2056 454.601 82.9208C454.639 82.0963 454.745 81.2763 454.917 80.4692C455.981 78.2535 457.374 76.2123 459.05 74.4153C459.817 73.448 460.716 72.3806 461.583 71.1965C462.718 69.7094 463.536 68.0057 463.989 66.1903C464.442 64.3749 464.519 62.4859 464.216 60.6396C464.216 60.6396 464.216 60.6396 464.216 60.5395C464.248 60.2165 464.202 59.8906 464.082 59.5889C463.866 57.9211 463.533 56.0366 463.166 53.9852H463.183ZM431.722 34.3724C442.436 32.5879 456.934 41.3103 458.383 50.4663C458.65 52.0006 458.9 53.4015 459.133 54.7024C459.367 56.0032 459.55 57.0372 459.717 58.0379L457.7 57.8211C457.297 57.7866 456.893 57.8676 456.534 58.0546C456.534 51.3835 453.668 51.0166 445.253 52.4175C440.17 53.2681 437.204 54.0853 436.121 55.9198C435.834 55.7047 435.494 55.5721 435.138 55.5363L411.809 53.168C413.825 44.8293 422.757 35.8234 431.605 34.3557L431.722 34.3724ZM458.383 68.7115L455.884 71.8969C453.318 75.099 451.635 77.2338 451.018 79.3518C450.759 80.4462 450.609 81.5634 450.568 82.6873C450.534 83.3414 450.461 83.9929 450.352 84.6386L448.435 84.9555L447.919 81.8368C447.83 81.3082 447.536 80.8364 447.1 80.5252C446.664 80.214 446.122 80.0889 445.594 80.1774C445.066 80.2658 444.595 80.5606 444.284 80.9969C443.973 81.4332 443.848 81.9753 443.936 82.5039L444.453 85.6226L442.336 85.9728L441.82 82.8541C441.698 82.3557 441.392 81.9218 440.964 81.6395C440.536 81.3571 440.017 81.2471 439.511 81.3315C439.005 81.4158 438.55 81.6883 438.237 82.0944C437.923 82.5005 437.774 83.0101 437.82 83.5212L438.337 86.6399L436.237 86.9901L435.721 83.8714C435.599 83.373 435.293 82.9392 434.865 82.6568C434.437 82.3744 433.918 82.2644 433.412 82.3488C432.906 82.4331 432.451 82.7057 432.138 83.1117C431.824 83.5178 431.676 84.0275 431.722 84.5385L432.238 87.6572L430.322 87.9741C430.055 87.5238 429.739 86.7567 429.489 86.1896C429.092 85.1647 428.595 84.1815 428.006 83.2544C426.739 81.4365 424.456 79.9189 421.007 77.7675C419.974 77.117 418.841 76.3999 417.674 75.566C413.958 73.1311 413.458 69.8289 412.358 62.5909C412.158 61.2733 411.942 59.8557 411.692 58.3214C411.692 57.9879 411.692 57.6376 411.692 57.2874L435.021 59.6389C435.197 59.6723 435.378 59.6723 435.554 59.6389C435.746 59.6055 435.931 59.5437 436.104 59.4555C436.336 60.5391 436.665 61.5996 437.087 62.6242C437.907 64.7943 439.485 66.5935 441.529 67.6882C443.572 68.783 445.943 69.0992 448.202 68.5781C450.138 68.367 451.966 67.5806 453.451 66.3203C454.936 65.06 456.009 63.3835 456.534 61.5068C456.839 61.7665 457.218 61.924 457.617 61.9571L460.55 62.2573C460.792 64.601 460.11 66.9468 458.65 68.7949L458.383 68.7115Z" fill="#C7D3DF"/>
<path fill-rule="evenodd" clip-rule="evenodd" d="M422.823 59.7557C421.911 59.91 421.064 60.3316 420.391 60.9671C419.718 61.6026 419.247 62.4236 419.04 63.3264C418.833 64.2292 418.897 65.1733 419.226 66.0394C419.554 66.9055 420.131 67.6547 420.885 68.1925C421.639 68.7303 422.535 69.0325 423.46 69.0608C424.385 69.0892 425.298 68.8426 426.083 68.352C426.868 67.8615 427.49 67.149 427.871 66.3047C428.252 65.4604 428.374 64.522 428.223 63.6082C428.014 62.3821 427.33 61.2884 426.318 60.5664C425.306 59.8444 424.049 59.5529 422.823 59.7557Z" fill="#C7D3DF"/>
<path fill-rule="evenodd" clip-rule="evenodd" d="M436.504 71.1298L434.838 74.949C434.729 75.14 434.678 75.3585 434.691 75.5779C434.705 75.7973 434.781 76.0082 434.912 76.1849C435.042 76.3615 435.221 76.4964 435.427 76.5731C435.633 76.6498 435.857 76.6649 436.071 76.6167L440.487 75.8829C440.69 75.8487 440.88 75.7608 441.037 75.6282C441.194 75.4956 441.313 75.3233 441.381 75.1292C441.449 74.935 441.464 74.7262 441.424 74.5244C441.384 74.3225 441.29 74.1351 441.153 73.9817L438.371 70.8963C438.247 70.7597 438.092 70.6549 437.919 70.5909C437.746 70.5268 437.56 70.5053 437.377 70.5282C437.194 70.5511 437.019 70.6177 436.867 70.7224C436.715 70.8271 436.591 70.9668 436.504 71.1298Z" fill="#C7D3DF"/>
<path d="M265.035 346.927L268.768 402.646H335.472L331.123 346.927H265.035Z" fill="black"/>
<path d="M277.967 346.927L281.699 402.646H348.404L344.055 346.927H277.967Z" fill="#284241"/>
<path d="M417.008 371.376H183.816C177.838 371.379 172.077 369.13 167.681 365.075C163.284 361.021 160.573 355.459 160.087 349.495L148.256 204.4C147.984 201.111 148.397 197.802 149.47 194.681C150.544 191.56 152.253 188.697 154.491 186.273C156.728 183.849 159.444 181.916 162.467 180.598C165.491 179.28 168.754 178.605 172.052 178.617H405.143C411.122 178.614 416.882 180.863 421.279 184.917C425.676 188.972 428.386 194.534 428.872 200.498L440.703 345.592C440.975 348.873 440.564 352.174 439.497 355.288C438.43 358.402 436.729 361.26 434.503 363.683C432.276 366.106 429.572 368.04 426.561 369.364C423.549 370.688 420.297 371.373 417.008 371.376Z" fill="#284241"/>
<path d="M426.389 371.376H193.232C187.253 371.379 181.493 369.13 177.096 365.075C172.699 361.021 169.988 355.459 169.503 349.495L157.655 204.4C157.388 201.119 157.803 197.818 158.874 194.705C159.945 191.592 161.65 188.735 163.879 186.314C166.108 183.893 168.815 181.961 171.828 180.639C174.84 179.317 178.094 178.634 181.384 178.633H414.558C420.537 178.63 426.297 180.88 430.694 184.934C435.091 188.989 437.802 194.551 438.287 200.514L450.118 345.609C450.388 348.891 449.975 352.194 448.904 355.308C447.834 358.421 446.13 361.279 443.9 363.701C441.67 366.122 438.963 368.055 435.949 369.376C432.935 370.697 429.68 371.378 426.389 371.376Z" fill="#456866"/>
<path d="M415.341 360.469H194.098C189.804 360.472 185.669 358.849 182.522 355.925C179.375 353.002 177.45 348.994 177.134 344.709L166.636 202.582C166.494 200.685 166.745 198.778 167.373 196.981C168.001 195.185 168.993 193.538 170.287 192.143C171.581 190.748 173.148 189.635 174.891 188.875C176.634 188.114 178.516 187.722 180.417 187.723H407.393C410.775 187.715 414.034 188.994 416.509 191.301C418.985 193.608 420.491 196.77 420.724 200.147L431.322 343.274C431.475 345.471 431.175 347.675 430.442 349.751C429.709 351.827 428.557 353.73 427.059 355.342C425.561 356.954 423.748 358.241 421.732 359.123C419.716 360.005 417.541 360.463 415.341 360.469Z" fill="black"/>
<path d="M421.174 206.251H166.887L165.853 192.176C165.815 191.606 165.893 191.035 166.084 190.497C166.275 189.959 166.574 189.466 166.963 189.048C167.352 188.631 167.823 188.298 168.345 188.07C168.868 187.842 169.432 187.724 170.003 187.723H408.109C411.291 187.722 414.355 188.925 416.688 191.09C419.021 193.254 420.451 196.222 420.69 199.397L421.174 206.251Z" fill="black"/>
<path d="M185.383 197.062C185.42 197.465 185.373 197.871 185.244 198.255C185.115 198.638 184.907 198.99 184.634 199.289C184.361 199.587 184.029 199.825 183.658 199.987C183.288 200.15 182.888 200.233 182.483 200.231C181.636 200.205 180.827 199.868 180.213 199.283C179.598 198.699 179.22 197.908 179.151 197.062C179.111 196.658 179.157 196.25 179.284 195.864C179.412 195.479 179.619 195.125 179.893 194.824C180.166 194.524 180.499 194.285 180.871 194.121C181.243 193.958 181.644 193.875 182.05 193.877C182.9 193.903 183.711 194.243 184.326 194.831C184.941 195.419 185.317 196.213 185.383 197.062Z" fill="#6C6799"/>
<path d="M198.23 197.062C198.27 197.466 198.225 197.873 198.097 198.258C197.969 198.642 197.761 198.995 197.488 199.294C197.214 199.593 196.881 199.831 196.509 199.993C196.137 200.154 195.736 200.235 195.331 200.231C194.483 200.205 193.675 199.868 193.06 199.283C192.446 198.699 192.067 197.908 191.998 197.062C191.959 196.658 192.004 196.25 192.132 195.864C192.26 195.479 192.467 195.125 192.74 194.824C193.014 194.524 193.347 194.285 193.719 194.121C194.09 193.958 194.492 193.875 194.898 193.877C195.748 193.903 196.558 194.243 197.174 194.831C197.789 195.419 198.165 196.213 198.23 197.062Z" fill="#6C6799"/>
<path d="M212.045 197.062C212.084 197.464 212.039 197.87 211.912 198.254C211.785 198.637 211.579 198.99 211.307 199.288C211.036 199.587 210.704 199.825 210.335 199.988C209.965 200.15 209.566 200.233 209.162 200.231C208.314 200.205 207.506 199.868 206.891 199.283C206.276 198.699 205.898 197.908 205.829 197.062C205.787 196.657 205.831 196.248 205.957 195.862C206.084 195.475 206.291 195.12 206.565 194.819C206.839 194.518 207.173 194.278 207.546 194.116C207.919 193.954 208.322 193.872 208.729 193.877C209.578 193.9 210.389 194.239 211.002 194.828C211.615 195.417 211.987 196.214 212.045 197.062Z" fill="#6C6799"/>
<path d="M400.344 248.212H307.861C307.16 248.198 306.489 247.924 305.978 247.444C305.467 246.963 305.152 246.31 305.095 245.61L303.745 227.098C303.712 226.766 303.75 226.431 303.855 226.114C303.96 225.797 304.13 225.506 304.355 225.259C304.579 225.012 304.853 224.815 305.159 224.681C305.464 224.547 305.794 224.478 306.128 224.48H398.678C399.38 224.495 400.051 224.772 400.559 225.256C401.068 225.74 401.377 226.397 401.427 227.098L402.777 245.61C402.81 245.946 402.772 246.285 402.664 246.605C402.555 246.924 402.38 247.217 402.15 247.463C401.92 247.71 401.639 247.904 401.328 248.033C401.016 248.162 400.681 248.223 400.344 248.212Z" fill="#28695C"/>
<path d="M406.776 325.396H314.676C313.989 325.377 313.332 325.105 312.834 324.63C312.335 324.156 312.03 323.514 311.977 322.828L307.577 262.538C307.547 262.213 307.585 261.884 307.69 261.574C307.795 261.264 307.963 260.98 308.185 260.739C308.406 260.498 308.676 260.307 308.976 260.178C309.276 260.048 309.6 259.983 309.927 259.987H402.01C402.695 260.005 403.349 260.275 403.848 260.746C404.346 261.217 404.653 261.855 404.71 262.538L409.109 322.828C409.139 323.153 409.101 323.481 408.998 323.79C408.894 324.1 408.728 324.385 408.508 324.626C408.289 324.868 408.021 325.061 407.723 325.194C407.425 325.326 407.102 325.395 406.776 325.396Z" fill="#14322C"/>
<path d="M193.182 230.184H286.065" stroke="#FCFDFC" stroke-width="1.07" stroke-miterlimit="10"/>
<path d="M194.198 244.293H287.098" stroke="#FCFDFC" stroke-width="1.07" stroke-miterlimit="10"/>
<path d="M195.231 258.419H288.115" stroke="#FCFDFC" stroke-width="1.07" stroke-miterlimit="10"/>
<path d="M196.265 272.528H289.148" stroke="#FCFDFC" stroke-width="1.07" stroke-miterlimit="10"/>
<path d="M187.366 356.4L266.535 244.21C268.223 241.823 270.784 240.201 273.661 239.695C276.538 239.189 279.499 239.84 281.899 241.508L322.941 270.077C324.141 270.911 325.163 271.975 325.951 273.207C326.738 274.439 327.274 275.814 327.528 277.254C327.782 278.694 327.749 280.17 327.431 281.597C327.112 283.025 326.515 284.375 325.674 285.57L246.488 397.76C244.8 400.146 242.239 401.769 239.362 402.275C236.485 402.781 233.524 402.129 231.124 400.462L190.082 371.893C188.882 371.059 187.859 369.994 187.072 368.762C186.285 367.53 185.75 366.153 185.498 364.713C185.245 363.272 185.28 361.796 185.601 360.369C185.921 358.942 186.521 357.593 187.366 356.4Z" fill="white"/>
<path d="M225.992 327.647C220.826 334.719 210.828 348.244 205.429 355.532C204.964 356.17 204.631 356.894 204.451 357.662C204.27 358.431 204.246 359.228 204.38 360.006C204.514 360.784 204.802 361.527 205.229 362.191C205.655 362.855 206.211 363.426 206.862 363.871L234.107 382.383C235.375 383.243 236.927 383.576 238.435 383.311C239.943 383.047 241.289 382.205 242.189 380.966L262.802 352.614C263.262 351.971 263.587 351.242 263.76 350.471C263.932 349.699 263.948 348.901 263.807 348.123C263.666 347.346 263.37 346.604 262.936 345.943C262.503 345.282 261.942 344.715 261.286 344.275L234.007 326.23C232.745 325.391 231.209 325.07 229.716 325.334C228.224 325.597 226.891 326.426 225.992 327.647Z" fill="#14322C"/>
<path d="M248.572 353.931L237.04 369.425C236.798 369.753 236.489 370.026 236.132 370.225C235.776 370.423 235.381 370.543 234.974 370.576C234.569 370.612 234.161 370.562 233.776 370.43C233.391 370.298 233.039 370.086 232.741 369.808L220.66 357.984C220.608 357.924 220.58 357.847 220.58 357.767C220.58 357.688 220.608 357.611 220.66 357.55L232.325 341.907C232.372 341.84 232.442 341.792 232.522 341.774C232.602 341.755 232.686 341.767 232.758 341.807L247.755 349.645C248.119 349.846 248.435 350.122 248.683 350.456C248.93 350.79 249.103 351.173 249.19 351.579C249.277 351.985 249.276 352.406 249.186 352.812C249.097 353.217 248.921 353.599 248.672 353.931H248.572ZM221.293 357.717L233.158 369.391C233.378 369.601 233.641 369.762 233.928 369.862C234.216 369.963 234.521 370.002 234.824 369.975C235.148 369.96 235.465 369.875 235.753 369.725C236.041 369.576 236.292 369.365 236.491 369.108L248.072 353.614C248.268 353.357 248.406 353.061 248.477 352.745C248.549 352.43 248.551 352.103 248.485 351.786C248.418 351.47 248.284 351.171 248.092 350.911C247.9 350.651 247.655 350.436 247.372 350.279L232.675 342.574L221.293 357.717Z" fill="white" stroke="white" stroke-width="0.47" stroke-miterlimit="10"/>
<path d="M231.774 347.811C231.707 347.869 231.621 347.902 231.533 347.902C231.444 347.902 231.358 347.869 231.291 347.811L228.708 345.926C227.824 345.263 226.713 344.978 225.619 345.134C224.526 345.291 223.539 345.875 222.876 346.76C222.213 347.645 221.928 348.757 222.084 349.851C222.241 350.946 222.825 351.934 223.709 352.597L226.308 354.532C226.371 354.597 226.405 354.684 226.405 354.774C226.405 354.864 226.371 354.95 226.308 355.015C226.246 355.077 226.162 355.111 226.075 355.111C225.988 355.111 225.904 355.077 225.842 355.015L223.242 353.064C222.215 352.294 221.535 351.148 221.352 349.876C221.169 348.605 221.499 347.313 222.268 346.285C223.037 345.256 224.182 344.576 225.453 344.393C226.723 344.21 228.014 344.539 229.041 345.309L231.641 347.244C231.695 347.264 231.743 347.297 231.781 347.34C231.819 347.383 231.846 347.435 231.859 347.491C231.872 347.548 231.871 347.606 231.857 347.662C231.842 347.717 231.813 347.769 231.774 347.811Z" fill="white" stroke="white" stroke-width="0.47" stroke-miterlimit="10"/>
<path d="M246.822 318.925L288.515 261.754" stroke="#14322C" stroke-width="0.95" stroke-miterlimit="10"/>
<path d="M256.87 324.279L275.767 297.394" stroke="#14322C" stroke-width="0.95" stroke-miterlimit="10"/>
<path d="M265.285 330.9L292.68 292.374" stroke="#14322C" stroke-width="0.95" stroke-miterlimit="10"/>
<path d="M229.858 292.575C230.825 292.765 231.714 293.237 232.414 293.931C233.114 294.625 233.593 295.511 233.791 296.477C233.914 297.08 233.902 297.703 233.756 298.301C233.61 298.899 233.334 299.457 232.946 299.935C232.559 300.414 232.071 300.8 231.517 301.067C230.963 301.335 230.357 301.476 229.742 301.48L226.409 301.147C226.592 303.932 228.609 308.685 241.573 311.704C242.622 311.929 243.547 312.542 244.165 313.42C244.782 314.297 245.047 315.376 244.906 316.44C244.78 317.22 244.399 317.936 243.823 318.477C243.247 319.017 242.509 319.351 241.723 319.425H241.49C241.979 319.88 242.351 320.447 242.571 321.078C242.792 321.709 242.855 322.384 242.756 323.044C242.63 323.824 242.25 324.541 241.674 325.081C241.098 325.621 240.359 325.955 239.573 326.03C239.357 326.055 239.139 326.055 238.923 326.03C239.156 326.652 239.225 327.324 239.123 327.981C238.995 328.76 238.614 329.475 238.038 330.014C237.463 330.554 236.725 330.889 235.941 330.966C235.472 331.012 235 330.984 234.541 330.883L234.041 330.75C234.048 330.822 234.048 330.894 234.041 330.966C233.913 331.745 233.531 332.46 232.956 333C232.38 333.539 231.643 333.874 230.858 333.952C230.389 334 229.916 333.967 229.458 333.852C226.203 333.132 223.031 332.076 219.993 330.7H219.877C218.647 330.128 217.456 329.476 216.311 328.748C208.493 323.985 201.628 317.81 196.064 310.536L206.063 289.706L229.858 292.575Z" fill="#FFB890"/>
<path d="M235.258 288.539L226.409 301.23L232.891 304.115L236.991 302.248L240.29 293.492L235.258 288.539Z" fill="white"/>
<path d="M172.269 274.613L206.163 289.806L198.031 311.854L160.854 298.378L172.269 274.613Z" fill="#FFB890"/>
<path d="M187.616 278.832L201.78 286.237L191.115 312.354L174.918 305.383L187.616 278.832Z" fill="white"/>
<path d="M120.861 238.089L186.716 273.112C187.879 273.722 188.911 274.555 189.752 275.564C190.594 276.573 191.228 277.738 191.62 278.992C192.011 280.247 192.152 281.566 192.034 282.875C191.916 284.184 191.541 285.457 190.932 286.621L180.934 305.833C179.813 308.031 177.921 309.737 175.62 310.623C173.32 311.51 170.773 311.514 168.469 310.636L101.281 285.436C95.8998 283.492 91.4546 279.579 88.8417 274.485C86.2288 269.391 85.6423 263.495 87.2006 257.985C90.9166 244.877 108.347 232.785 120.861 238.089Z" fill="black"/>
<path d="M152.372 254.85L120.878 238.072" stroke="#383838" stroke-width="0.81" stroke-linecap="round" stroke-linejoin="round"/>
<path d="M461.583 642.22L444.953 579.662L476.614 578.495L493.228 645.655L462.7 645.372L461.583 642.22Z" fill="#E8B8B4"/>
<path d="M491.644 629.962C491.644 629.962 468.232 639.601 457.234 624.408L404.727 653.711L498.909 653.144L491.644 629.962Z" fill="black"/>
<path d="M501.692 651.073L407.509 652.016L407.592 660.304L501.775 659.362L501.692 651.073Z" fill="white"/>
<path d="M407.276 476.545L447.769 617.287L493.077 615.619L464.916 490.537L407.276 476.545Z" fill="black"/>
<path d="M328.807 632.98L346.82 570.139L377.031 582.731L357.002 649.908L328.49 636.416L328.807 632.98Z" fill="#E8B8B4"/>
<path d="M366.251 628.911C366.251 628.911 342.072 638.917 330.707 623.174L276.45 653.477L373.749 652.877L366.251 628.911Z" fill="black"/>
<path d="M373.744 652.848L276.446 653.443L276.499 661.998L373.796 661.403L373.744 652.848Z" fill="white"/>
<path d="M369.066 471.375L323.475 608.931L372.216 620.155L426.706 485.367L369.066 471.375Z" fill="black"/>
<path d="M463.183 456.382H392.163C385.446 456.386 379.007 459.058 374.257 463.811C369.508 468.564 366.838 475.01 366.834 481.731C366.834 488.455 369.503 494.903 374.253 499.657C379.003 504.411 385.445 507.081 392.163 507.081H540.319C559.899 507.081 575.879 490.27 573.646 470.808C573.32 467.284 572.271 463.867 570.565 460.767C568.859 457.668 566.533 454.955 563.732 452.796L463.183 456.382Z" fill="black"/>
<path d="M477.33 273.179L491.311 309.552L526.221 297.961L503.375 239.723L477.33 273.179Z" fill="#FFB890"/>
<path d="M484.379 291.491L492.76 268.992L478.93 277.315L484.379 291.491Z" fill="#EC8A63"/>
<path d="M464.049 196.962C464.049 196.962 446.686 200.631 446.669 222.696C446.669 222.696 446.836 238.689 447.252 261.704C447.485 273.862 458.917 283.252 470.581 280.05C478.681 278.018 486.232 274.219 492.694 268.926L502.409 258.919C524.905 231.468 501.442 190.074 466.532 196.312L464.049 196.962Z" fill="#FFB890"/>
<path d="M449.535 245.51L441.887 253.432C441.651 253.677 441.49 253.984 441.423 254.318C441.356 254.651 441.385 254.997 441.508 255.314C441.63 255.631 441.841 255.907 442.115 256.108C442.388 256.31 442.714 256.429 443.053 256.451L451.035 256.951L449.535 245.51Z" fill="#FFB890"/>
<path d="M454.301 222.529C454.301 222.529 448.436 221.828 448.102 224.463C448.102 224.463 447.919 226.264 453.101 226.765C458.284 227.265 459.6 226.882 460.25 225.214C460.9 223.546 457.001 222.612 454.301 222.529Z" fill="black"/>
<path d="M489.028 235.454C489.028 235.454 510.824 187.973 451.718 205.434C451.718 205.434 467.832 173.93 509.907 191.158C518.489 194.677 527.821 204.5 529.787 213.606C532.986 228.299 524.505 239.99 512.373 263.806C512.373 263.806 501.775 264.323 496.91 247.779C495.826 244.126 489.028 235.454 489.028 235.454Z" fill="black"/>
<path d="M451.718 205.451C451.718 205.451 450.435 211.989 467.682 210.671C484.929 209.354 471.364 237.355 483.445 242.859L507.491 210.271L493.16 195.745L477.596 195.961L451.718 205.451Z" fill="black"/>
<path d="M455.501 244.56C455.372 245.034 455.105 245.459 454.735 245.781C454.365 246.104 453.908 246.309 453.421 246.372C452.934 246.434 452.44 246.351 452 246.133C451.561 245.914 451.196 245.57 450.951 245.144C450.707 244.718 450.595 244.229 450.628 243.739C450.661 243.249 450.839 242.779 451.138 242.39C451.438 242.001 451.846 241.71 452.311 241.553C452.776 241.396 453.277 241.38 453.751 241.508C454.066 241.593 454.362 241.739 454.621 241.939C454.879 242.138 455.096 242.387 455.259 242.671C455.421 242.954 455.526 243.267 455.568 243.591C455.609 243.915 455.587 244.244 455.501 244.56Z" fill="black"/>
<path d="M448.369 261.204C448.369 261.204 450.402 260.32 454.501 262.438" stroke="black" stroke-width="0.81" stroke-linecap="round" stroke-linejoin="round"/>
<path d="M495.115 251.371C501.546 250.757 506.263 245.041 505.649 238.604C505.035 232.167 499.324 227.447 492.893 228.061C486.462 228.676 481.745 234.391 482.359 240.828C482.973 247.265 488.684 251.985 495.115 251.371Z" fill="#FFB890"/>
<path d="M489.162 243.993C489.162 243.993 488.112 235.571 496.327 235.888" stroke="black" stroke-width="0.81" stroke-linecap="round" stroke-linejoin="round"/>
<path d="M463.183 356.4C463.183 358.067 474.847 386.119 468.582 456.382C468.582 456.382 501.759 481.798 572.579 466.388C572.579 466.388 595.325 357.65 548.234 304.032C548.234 304.032 523.505 274.846 467.649 305.3L463.183 356.4Z" fill="#14322C"/>
<path d="M368.35 383.801H347.12C342.944 382.03 338.443 381.155 333.908 381.233C329.373 381.31 324.905 382.338 320.792 384.251C309.227 389.888 305.794 394.741 304.411 402.597H366.833L368.35 383.801Z" fill="#FFB890"/>
<path d="M364.2 370.576H434.621V402.647H364.2C361.279 402.647 358.477 401.485 356.412 399.418C354.346 397.35 353.186 394.546 353.186 391.623V381.616C353.183 380.167 353.467 378.732 354.019 377.392C354.572 376.053 355.383 374.836 356.406 373.81C357.429 372.785 358.644 371.971 359.981 371.416C361.319 370.861 362.752 370.576 364.2 370.576Z" fill="#14322C"/>
<path d="M461.999 309.919L417.224 368.291C414.134 372.049 412.444 376.765 412.444 381.633C412.444 386.5 414.134 391.216 417.224 394.975C419.165 397.342 421.6 399.255 424.358 400.581C427.117 401.907 430.131 402.612 433.19 402.649C436.25 402.685 439.28 402.052 442.069 400.792C444.858 399.533 447.338 397.678 449.335 395.358L494.094 348.661C503.425 338.655 501.326 313.121 489.728 305.867C485.375 303.145 480.199 302.059 475.121 302.801C470.043 303.544 465.393 306.066 461.999 309.919Z" fill="#14322C"/>
<path d="M467.615 376.329L494.094 348.728" stroke="black" stroke-width="0.81" stroke-linecap="round" stroke-linejoin="round"/>
<path d="M543.235 549.726H457.117C453.353 549.721 449.745 548.223 447.083 545.559C444.422 542.895 442.924 539.284 442.92 535.517H557.433C557.428 539.284 555.931 542.895 553.269 545.559C550.608 548.223 546.999 549.721 543.235 549.726Z" fill="#1F1E24"/>
<path d="M486.146 544.873H517.123V571.14C517.123 574.325 515.859 577.379 513.609 579.631C511.359 581.883 508.307 583.148 505.125 583.148H498.143C494.961 583.148 491.91 581.883 489.66 579.631C487.41 577.379 486.146 574.325 486.146 571.14V544.873Z" fill="#1F1E24"/>
<path d="M509.357 573.658H493.877V642.236H509.357V573.658Z" fill="#1F1E24"/>
<path d="M553.666 633.381H449.835V644.104H553.666V633.381Z" fill="#1F1E24"/>
<path d="M500.192 662.516C506.855 662.516 512.257 657.11 512.257 650.442C512.257 643.773 506.855 638.367 500.192 638.367C493.529 638.367 488.128 643.773 488.128 650.442C488.128 657.11 493.529 662.516 500.192 662.516Z" fill="#1F1E24"/>
<path d="M547.317 662.516C553.98 662.516 559.382 657.11 559.382 650.442C559.382 643.773 553.98 638.367 547.317 638.367C540.654 638.367 535.253 643.773 535.253 650.442C535.253 657.11 540.654 662.516 547.317 662.516Z" fill="#1F1E24"/>
<path d="M455.484 662.516C462.147 662.516 467.549 657.11 467.549 650.442C467.549 643.773 462.147 638.367 455.484 638.367C448.821 638.367 443.42 643.773 443.42 650.442C443.42 657.11 448.821 662.516 455.484 662.516Z" fill="#1F1E24"/>
<path d="M594.426 538.919H471.382C467.165 538.919 463.122 537.243 460.141 534.259C457.159 531.275 455.484 527.228 455.484 523.008C455.484 518.787 457.159 514.739 460.14 511.752C463.12 508.766 467.164 507.086 471.382 507.081H594.426C598.644 507.086 602.687 508.766 605.668 511.752C608.649 514.739 610.323 518.787 610.323 523.008C610.323 527.228 608.648 531.275 605.667 534.259C602.685 537.243 598.642 538.919 594.426 538.919Z" fill="#101011"/>
<path d="M481.996 538.919H387.013C382.797 538.919 378.754 537.243 375.772 534.259C372.791 531.275 371.116 527.228 371.116 523.008C371.116 518.787 372.791 514.739 375.771 511.752C378.752 508.766 382.796 507.086 387.013 507.081H481.996C486.215 507.086 490.261 508.765 493.244 511.751C496.227 514.737 497.906 518.786 497.91 523.008C497.906 527.23 496.227 531.276 493.243 534.26C490.259 537.243 486.214 538.919 481.996 538.919Z" fill="#1F1E24"/>
<path d="M591.193 523.008H583.328C581.326 523.008 579.406 522.213 577.99 520.796C576.575 519.379 575.779 517.457 575.779 515.454V471.391H584.761L591.193 523.008Z" fill="#1F1E24"/>
<path d="M584.761 471.375H597.642V516.554C597.642 518.262 596.964 519.899 595.758 521.106C594.552 522.314 592.915 522.992 591.21 522.992C589.504 522.992 587.868 522.314 586.661 521.106C585.455 519.899 584.777 518.262 584.777 516.554V471.375H584.761Z" fill="#101011"/>
<path d="M611.923 346.927H548.651C539.301 346.927 531.721 354.513 531.721 363.871V454.43C531.721 463.788 539.301 471.375 548.651 471.375H611.923C621.273 471.375 628.853 463.788 628.853 454.43V363.871C628.853 354.513 621.273 346.927 611.923 346.927Z" fill="#1F1E24"/>
<path d="M633.868 346.927H570.596C561.246 346.927 553.666 354.513 553.666 363.871V454.43C553.666 463.788 561.246 471.375 570.596 471.375H633.868C643.219 471.375 650.798 463.788 650.798 454.43V363.871C650.798 354.513 643.219 346.927 633.868 346.927Z" fill="#101011"/>
<path d="M647.25 172.646H576.096C573.638 172.646 571.646 174.64 571.646 177.099V229.283C571.646 231.742 573.638 233.736 576.096 233.736H647.25C649.707 233.736 651.699 231.742 651.699 229.283V177.099C651.699 174.64 649.707 172.646 647.25 172.646Z" fill="white"/>
<path d="M585.527 228.633V249.413L607.607 228.633H585.527Z" fill="white"/>
<path d="M614.372 196.395C614.372 194.477 612.606 193.326 610.156 193.326C608.939 193.3 607.738 193.608 606.684 194.217C605.629 194.825 604.761 195.711 604.174 196.779L597.025 192.943C599.558 188.673 604.207 185.838 611.256 185.838C618.655 185.838 623.92 189.007 623.92 194.861C623.92 202.349 616.055 203.45 616.055 207.869H607.523C607.523 201.515 614.372 199.997 614.372 196.395ZM606.374 215.508C606.504 214.153 607.133 212.896 608.139 211.981C609.145 211.067 610.455 210.56 611.814 210.56C613.174 210.56 614.484 211.067 615.49 211.981C616.496 212.896 617.125 214.153 617.255 215.508C617.178 216.9 616.571 218.209 615.559 219.167C614.548 220.126 613.207 220.66 611.814 220.66C610.421 220.66 609.081 220.126 608.069 219.167C607.057 218.209 606.451 216.9 606.374 215.508Z" fill="#404366"/>
</g>
<defs>
<clipPath id="clip0_6_12">
<rect width="736" height="663" fill="white"/>
</clipPath>
</defs>
</svg>
